<?xml version="1.0" encoding="UTF-8"?>
<svg width="60" height="60" viewBox="0 0 60 60" fill="none" xmlns="http://www.w3.org/2000/svg">
  <rect width="60" height="60" rx="12" fill="#667eea"/>
  <path d="M15 12h30c1.657 0 3 1.343 3 3v30c0 1.657-1.343 3-3 3H15c-1.657 0-3-1.343-3-3V15c0-1.657 1.343-3 3-3z" fill="white"/>
  <path d="M20 20h20v2H20v-2zm0 4h16v2H20v-2zm0 4h18v2H20v-2zm0 4h14v2H20v-2z" fill="#667eea"/>
  <circle cx="42" cy="18" r="8" fill="#28a745"/>
  <path d="M38.5 18l2 2 4-4" stroke="white" stroke-width="2" stroke-linecap="round" stroke-linejoin="round"/>
  <path d="M30 35h8v8h-8v-8z" fill="#ffc107"/>
  <path d="M32 37h4v1h-4v-1zm0 2h4v1h-4v-1zm0 2h2v1h-2v-1z" fill="white"/>
</svg>