<svg xmlns="http://www.w3.org/2000/svg" width="60" height="60" fill="none">
  <rect width="60" height="60" fill="#667eea" rx="12"/>
  <rect width="28" height="38" x="12" y="8" fill="#fff" stroke="#e0e0e0" rx="2"/>
  <rect width="28" height="8" x="12" y="8" fill="#dc3545" rx="2"/>
  <text x="26" y="14.5" fill="#fff" font-family="Arial, sans-serif" font-size="6" font-weight="bold" text-anchor="middle">PDF</text>
  <path stroke="#ccc" d="M16 20h16M16 23h14M16 26h18M16 29h12M16 32h16M16 35h10"/>
  <circle cx="45" cy="15" r="10" fill="#28a745"/>
  <g transform="translate(40 10)">
    <circle cx="5" cy="4" r="1.5" fill="#fff"/>
    <path fill="#fff" d="M4 5.5h2v3H4z"/>
    <circle cx="7" cy="12" r="2.5" stroke="#fff"/>
    <circle cx="3" cy="12" r="1" fill="#fff"/>
    <path stroke="#fff" d="M4 12h.5M4.5 8.5l2 1"/>
  </g>
  <rect width="16" height="16" x="42" y="40" fill="#ffc107" rx="2"/>
  <text x="50" y="46" fill="#333" font-family="Arial, sans-serif" font-size="4" font-weight="bold" text-anchor="middle">WCAG</text>
  <text x="50" y="50" fill="#333" font-family="Arial, sans-serif" font-size="4" font-weight="bold" text-anchor="middle">2.1</text>
  <text x="50" y="54" fill="#333" font-family="Arial, sans-serif" font-size="4" font-weight="bold" text-anchor="middle">AA</text>
  <circle cx="15" cy="48" r="8" fill="#6f42c1"/>
  <text x="15" y="51" fill="#fff" font-family="Arial, sans-serif" font-size="6" font-weight="bold" text-anchor="middle">AI</text>
</svg>
